# xmcd
#
# Track frame offsets: 
#        150
#        11700
#        40927
#        65777
#        91912
#        119050
#        140462
#        156690
#        176330
#        193497
#        207757
#        228930
#
# Disc length: 3386 seconds
#
# Revision: 1
# Processed by: cddbd v1.5.2PL0 Copyright (c) Steve Scherf et al.
# Submitted via: ExactAudioCopy v0.99pb5
#
DISCID=b20d380c
DTITLE=PMJ feat Roy Ayers - Love Not Truth
DYEAR=2006
DGENRE=Jazz
TTITLE0=Sun Theme
TTITLE1=Love Not Truth
TTITLE2=Lucy
TTITLE3=Crazy Love Song
TTITLE4=Darkness Into Light
TTITLE5=Good Vibrations
TTITLE6=Everythings
TTITLE7=Love Once More
TTITLE8=Undecided
TTITLE9=Another Kind Of Culture
TTITLE10=Love Not Truth Feat Judy La Rose
TTITLE11=Time And Space Theme
EXTD=
EXTT0=
EXTT1=
EXTT2=
EXTT3=
EXTT4=
EXTT5=
EXTT6=
EXTT7=
EXTT8=
EXTT9=
EXTT10=
EXTT11=
PLAYORDER=
